<svg xmlns="http://www.w3.org/2000/svg" width="1600" height="900" viewBox="0 0 1600 900">
  <rect width="1600" height="900" fill="#1f1b16"/>
  <path d="M120 450H1480" stroke="#6b6258" stroke-width="10"/>
  <g>
    <g transform="translate(250 450)">
      <rect x="-135" y="-105" width="270" height="210" rx="16" fill="#fafaf7" stroke="#a9472e" stroke-width="8"/>
      <circle r="30" fill="#a9472e"/>
      <rect x="-80" y="150" width="160" height="16" rx="8" fill="#e5ded2"/>
    </g>
    <g transform="translate(620 450)">
      <rect x="-135" y="-105" width="270" height="210" rx="16" fill="#fafaf7" stroke="#d9c786" stroke-width="8"/>
      <path d="M-45 -28H45M-45 0H45M-45 28H45" stroke="#843521" stroke-width="16" stroke-linecap="round"/>
      <rect x="-62" y="150" width="124" height="16" rx="8" fill="#e5ded2"/>
    </g>
    <g transform="translate(990 450)">
      <rect x="-135" y="-105" width="270" height="210" rx="16" fill="#fafaf7" stroke="#9ec7d7" stroke-width="8"/>
      <path d="M-52 0L-18 34L58 -42" fill="none" stroke="#176b87" stroke-width="18" stroke-linecap="round" stroke-linejoin="round"/>
      <rect x="-72" y="150" width="144" height="16" rx="8" fill="#e5ded2"/>
    </g>
    <g transform="translate(1360 450)">
      <rect x="-135" y="-105" width="270" height="210" rx="16" fill="#fafaf7" stroke="#c6b5e3" stroke-width="8"/>
      <ellipse cy="-42" rx="68" ry="30" fill="#843521"/>
      <path d="M-68 -42V42C-68 82 68 82 68 42V-42" fill="#a9472e"/>
      <ellipse cy="42" rx="68" ry="30" fill="#843521"/>
      <rect x="-78" y="150" width="156" height="16" rx="8" fill="#e5ded2"/>
    </g>
  </g>
</svg>
